<svg xmlns="http://www.w3.org/2000/svg" fill="#ffffff" viewBox="0 0 32 32"><title>43-Process</title><g id="_43-Process" data-name="43-Process"><path d="M31,12H28.36a12.92,12.92,0,0,0-.79-1.91l1.87-1.87a1,1,0,0,0,0-1.41L25.19,2.56a1,1,0,0,0-1.41,0L21.91,4.43A12.92,12.92,0,0,0,20,3.64V1a1,1,0,0,0-1-1H13a1,1,0,0,0-1,1V3.64a12.92,12.92,0,0,0-1.91.79L8.22,2.56a1,1,0,0,0-1.41,0L2.56,6.81a1,1,0,0,0,0,1.41l1.87,1.87A12.92,12.92,0,0,0,3.64,12H1a1,1,0,0,0-1,1v6a1,1,0,0,0,1,1H3.64a12.92,12.92,0,0,0,.79,1.91L2.56,23.78a1,1,0,0,0,0,1.41l4.24,4.24a1,1,0,0,0,1.41,0l1.87-1.87a12.92,12.92,0,0,0,1.91.79V31a1,1,0,0,0,1,1h6a1,1,0,0,0,1-1V28.36a12.92,12.92,0,0,0,1.91-.79l1.87,1.87a1,1,0,0,0,1.41,0l4.24-4.24a1,1,0,0,0,0-1.41l-1.87-1.87A12.92,12.92,0,0,0,28.36,20H31a1,1,0,0,0,1-1V13A1,1,0,0,0,31,12Zm-1,6H27.61a1,1,0,0,0-1,.75,10.93,10.93,0,0,1-1.17,2.83,1,1,0,0,0,.15,1.22l1.69,1.69-2.83,2.83-1.69-1.69a1,1,0,0,0-1.22-.15,10.93,10.93,0,0,1-2.83,1.17,1,1,0,0,0-.75,1V30H14V27.61a1,1,0,0,0-.75-1,10.93,10.93,0,0,1-2.83-1.17,1,1,0,0,0-1.22.15L7.51,27.31,4.69,24.49l1.69-1.69a1,1,0,0,0,.15-1.22,10.93,10.93,0,0,1-1.17-2.83,1,1,0,0,0-1-.75H2V14H4.39a1,1,0,0,0,1-.75,10.93,10.93,0,0,1,1.17-2.83,1,1,0,0,0-.15-1.22L4.69,7.51,7.51,4.69,9.21,6.38a1,1,0,0,0,1.22.15,10.93,10.93,0,0,1,2.83-1.17,1,1,0,0,0,.75-1V2h4V4.39a1,1,0,0,0,.75,1,10.93,10.93,0,0,1,2.83,1.17,1,1,0,0,0,1.22-.15l1.69-1.69,2.83,2.83L25.62,9.21a1,1,0,0,0-.15,1.22,10.93,10.93,0,0,1,1.17,2.83,1,1,0,0,0,1,.75H30Z"/><path d="M16,10a6,6,0,1,0,6,6A6,6,0,0,0,16,10Zm0,10a4,4,0,1,1,4-4A4,4,0,0,1,16,20Z"/></g></svg>