<svg xmlns="http://www.w3.org/2000/svg" viewBox="0 0 48 48"><defs><style>.cls-1{fill:#ffffff;}</style></defs><title>Asset 10ldpi</title><g id="Layer_2" data-name="Layer 2"><g id="layer_1-2" data-name="layer 1"><rect class="cls-1" x="12" y="41" width="2" height="2"/><path class="cls-1" d="M13,48a6,6,0,1,1,6-6A6,6,0,0,1,13,48Zm0-10a4,4,0,1,0,4,4A4,4,0,0,0,13,38Z"/><rect class="cls-1" x="36" y="41" width="2" height="2"/><path class="cls-1" d="M37,48a6,6,0,1,1,6-6A6,6,0,0,1,37,48Zm0-10a4,4,0,1,0,4,4A4,4,0,0,0,37,38Z"/><rect class="cls-1" x="18" y="42" width="14" height="2"/><path class="cls-1" d="M8,44H3a3,3,0,0,1-3-3V39H2v2a1,1,0,0,0,1,1H8Z"/><path class="cls-1" d="M44,44H42V42h2a2,2,0,0,0,2-2V17a4,4,0,0,0-4-4H28V11H42a6,6,0,0,1,6,6V40A4,4,0,0,1,44,44Z"/><path class="cls-1" d="M26,39H16V37H26a4,4,0,0,0,4-4v-.18A5,5,0,0,0,29.16,30l-1.58-2.37a11,11,0,0,1-1.81-5.11l-.4-4.42a8.92,8.92,0,0,0-3.1-6L18.84,9.18c-2.38,1.1-3.3,1.1-5.68,0L9.74,12.12a8.89,8.89,0,0,0-3.11,6l-.4,4.42a11,11,0,0,1-1.81,5.11L2.84,30A5,5,0,0,0,2,32.82V33a4,4,0,0,0,4,4h4v2H6a6,6,0,0,1-6-6v-.18a7,7,0,0,1,1.18-3.89l1.58-2.37a9,9,0,0,0,1.47-4.18L4.64,18A10.94,10.94,0,0,1,8.43,10.6l3.92-3.36a1,1,0,0,1,1.08-.14c2.5,1.2,2.64,1.2,5.14,0a1,1,0,0,1,1.08.14l3.92,3.36A10.92,10.92,0,0,1,27.36,18l.41,4.43a8.94,8.94,0,0,0,1.47,4.18l1.58,2.37A7,7,0,0,1,32,32.82V33A6,6,0,0,1,26,39Z"/><path class="cls-1" d="M16,10a8,8,0,0,1-3.43-1.1,1,1,0,0,1-.49-.51l-3-7A1,1,0,0,1,10.52.14c4.1,2.48,6.86,2.48,11,0a1,1,0,0,1,1.44,1.25l-3,7a1,1,0,0,1-.49.51A8,8,0,0,1,16,10ZM13.77,7.26c2.07,1,2.39,1,4.46,0L20,3.15a9.74,9.74,0,0,1-8,0Z"/><path class="cls-1" d="M16,31a4,4,0,0,1-4-4h2a2,2,0,1,0,2-2,4,4,0,1,1,4-4H18a2,2,0,1,0-2,2,4,4,0,0,1,0,8Z"/><rect class="cls-1" x="15" y="30" width="2" height="3"/><rect class="cls-1" x="15" y="15" width="2" height="3"/><rect class="cls-1" x="22" y="23" width="2" height="2"/><rect class="cls-1" x="8" y="23" width="2" height="2"/><path class="cls-1" d="M47,34a1,1,0,0,1-.34-.06L39,31.14a6,6,0,0,1-4-5.64V20a3,3,0,0,1,3-3h9a1,1,0,0,1,1,1V33a1,1,0,0,1-1,1ZM38,19a1,1,0,0,0-1,1v5.5a4,4,0,0,0,2.63,3.76L46,31.57V19Z"/></g></g></svg>