<svg xmlns="http://www.w3.org/2000/svg" viewBox="0 0 48 48"><defs><style>.cls-1{fill:#dad7e5;}.cls-2{fill:#edebf2;}</style></defs><title>Workflow</title><g id="Workflow"><rect class="cls-1" x="16" y="1" width="16" height="12" rx="2"/><path class="cls-2" d="M32,3v8H28A10,10,0,0,1,18,1H30A2,2,0,0,1,32,3Z"/><rect class="cls-1" x="16" y="18" width="16" height="12" rx="2"/><path class="cls-2" d="M32,20v8H28A10,10,0,0,1,18,18H30A2,2,0,0,1,32,20Z"/><rect class="cls-1" x="16" y="35" width="16" height="12" rx="2"/><path class="cls-2" d="M32,37v8H28A10,10,0,0,1,18,35H30A2,2,0,0,1,32,37Z"/><path d="M30,0H18a3,3,0,0,0-3,3v8a3,3,0,0,0,3,3H30a3,3,0,0,0,3-3V3A3,3,0,0,0,30,0Zm1,11a1,1,0,0,1-1,1H18a1,1,0,0,1-1-1V3a1,1,0,0,1,1-1H30a1,1,0,0,1,1,1Z"/><path d="M30,17H18a3,3,0,0,0-3,3v8a3,3,0,0,0,3,3H30a3,3,0,0,0,3-3V20A3,3,0,0,0,30,17Zm1,11a1,1,0,0,1-1,1H18a1,1,0,0,1-1-1V20a1,1,0,0,1,1-1H30a1,1,0,0,1,1,1Z"/><path d="M30,34H18a3,3,0,0,0-3,3v8a3,3,0,0,0,3,3H30a3,3,0,0,0,3-3V37A3,3,0,0,0,30,34Zm1,11a1,1,0,0,1-1,1H18a1,1,0,0,1-1-1V37a1,1,0,0,1,1-1H30a1,1,0,0,1,1,1Z"/><path d="M36,6a1,1,0,0,0,0,2c9.48,0,10.68,12.17,2.74,14.66a1,1,0,0,0-1.45-1.37c-1.92,1.93-2.1,2.06-2.21,2.33a1,1,0,0,0,.21,1.09C37.47,26.89,37.46,27,38,27a1,1,0,0,0,.71-1.71l-.46-.45A9.52,9.52,0,0,0,46,15.5C46,10.64,42.28,6,36,6Z"/><path d="M12,25a1,1,0,0,0,0-2C5.66,23,2,27.7,2,32.5a9.52,9.52,0,0,0,7.75,9.34l-.46.45a1,1,0,0,0,1.42,1.42c3.08-3.09,3.08-2.34,0-5.42a1,1,0,0,0-1.45,1.37A7.51,7.51,0,0,1,12,25Z"/><path d="M41.29,38.29,38,41.59l-1.29-1.3a1,1,0,0,0-1.42,1.42c3.29,3.28,2,3.4,7.42-2A1,1,0,0,0,41.29,38.29Z"/><path d="M10.71,3.29A1,1,0,0,0,9.29,4.71C9.69,5.1,10.51,5,5,5A1,1,0,0,0,5,7c5.29,0,4.71-.13,4.29.29a1,1,0,0,0,1.42,1.42C13.78,5.63,13.77,6.36,10.71,3.29Z"/><path d="M28,4H20a1,1,0,0,0,0,2h8A1,1,0,0,0,28,4Z"/><path d="M26,8H20a1,1,0,0,0,0,2h6A1,1,0,0,0,26,8Z"/><path d="M28,21H20a1,1,0,0,0,0,2h8A1,1,0,0,0,28,21Z"/><path d="M26,25H20a1,1,0,0,0,0,2h6A1,1,0,0,0,26,25Z"/><path d="M28,38H20a1,1,0,0,0,0,2h8A1,1,0,0,0,28,38Z"/><path d="M26,42H20a1,1,0,0,0,0,2h6A1,1,0,0,0,26,42Z"/></g></svg>